HIERARCHY
ROOT Hips
{
	OFFSET 0.000000 0.000000 0.000000
	CHANNELS 6 Xposition Yposition Zposition Zrotation Yrotation Xrotation 
	JOINT LHipJoint
	{
		OFFSET 0.000000 0.000000 0.000000
		CHANNELS 3 Zrotation Yrotation Xrotation
		JOINT LeftUpLeg
		{
			OFFSET 1.363060 -1.794630 0.839290
			CHANNELS 3 Zrotation Yrotation Xrotation
			JOINT LeftLeg
			{
				OFFSET 2.448110 -6.726130 0.000000
				CHANNELS 3 Zrotation Yrotation Xrotation
				JOINT LeftFoot
				{
					OFFSET 2.562200 -7.039590 0.000000
					CHANNELS 3 Zrotation Yrotation Xrotation
					JOINT LeftToeBase
					{
						OFFSET 0.157640 -0.433110 2.322550
						CHANNELS 3 Zrotation Yrotation Xrotation
						End Site
						{
							OFFSET 0.000000 0.000000 0.000000
						}
					}
				}
			}
		}
	}
	JOINT RHipJoint
	{
		OFFSET 0.000000 0.000000 0.000000
		CHANNELS 3 Zrotation Yrotation Xrotation
		JOINT RightUpLeg
		{
			OFFSET -1.305520 -1.794630 0.839290
			CHANNELS 3 Zrotation Yrotation Xrotation
			JOINT RightLeg
			{
				OFFSET -2.542530 -6.985550 0.000000
				CHANNELS 3 Zrotation Yrotation Xrotation
				JOINT RightFoot
				{
					OFFSET -2.568260 -7.056230 0.000000
					CHANNELS 3 Zrotation Yrotation Xrotation
					JOINT RightToeBase
					{
						OFFSET -0.164730 -0.452590 2.363150
						CHANNELS 3 Zrotation Yrotation Xrotation
						End Site
						{
							OFFSET 0.000000 0.000000 0.000000
						}
					}
				}
			}
		}
	}
	JOINT LowerBack
	{
		OFFSET 0.000000 0.000000 0.000000
		CHANNELS 3 Zrotation Yrotation Xrotation
		JOINT Spine
		{
			OFFSET 0.028270 2.035590 -0.193380
			CHANNELS 3 Zrotation Yrotation Xrotation
			JOINT Spine1
			{
				OFFSET 0.056720 2.048850 -0.042750
				CHANNELS 3 Zrotation Yrotation Xrotation
				JOINT Neck
				{
					OFFSET 0.000000 0.000000 0.000000
					CHANNELS 3 Zrotation Yrotation Xrotation
					JOINT Neck1
					{
						OFFSET -0.054170 1.746240 0.172020
						CHANNELS 3 Zrotation Yrotation Xrotation
						JOINT Head
						{
							OFFSET 0.104070 1.761360 -0.123970
							CHANNELS 3 Zrotation Yrotation Xrotation
							End Site
							{
								OFFSET 0.000000 0.000000 0.000000
							}
						}
					}
				}
				JOINT LeftShoulder
				{
					OFFSET 0.000000 0.000000 0.000000
					CHANNELS 3 Zrotation Yrotation Xrotation
					JOINT LeftArm
					{
						OFFSET 3.362410 1.200890 -0.311210
						CHANNELS 3 Zrotation Yrotation Xrotation
						JOINT LeftForeArm
						{
							OFFSET 4.983000 -0.000000 -0.000000
							CHANNELS 3 Zrotation Yrotation Xrotation
							JOINT LeftHand
							{
								OFFSET 3.483560 -0.000000 -0.000000
								CHANNELS 3 Zrotation Yrotation Xrotation
								JOINT LeftFingerBase
								{
									OFFSET 0.000000 0.000000 0.000000
									CHANNELS 3 Zrotation Yrotation Xrotation
									JOINT LeftHandIndex1
									{
										OFFSET 0.715260 -0.000000 -0.000000
										CHANNELS 3 Zrotation Yrotation Xrotation
										End Site
										{
											OFFSET 0.000000 0.000000 0.000000
										}
									}
								}
								JOINT LThumb
								{
									OFFSET 0.000000 0.000000 0.000000
									CHANNELS 3 Zrotation Yrotation Xrotation
									End Site
									{
										OFFSET 0.000000 0.000000 0.000000
									}
								}
							}
						}
					}
				}
				JOINT RightShoulder
				{
					OFFSET 0.000000 0.000000 0.000000
					CHANNELS 3 Zrotation Yrotation Xrotation
					JOINT RightArm
					{
						OFFSET -3.136600 1.374050 -0.404650
						CHANNELS 3 Zrotation Yrotation Xrotation
						JOINT RightForeArm
						{
							OFFSET -5.241900 -0.000000 -0.000000
							CHANNELS 3 Zrotation Yrotation Xrotation
							JOINT RightHand
							{
								OFFSET -3.444170 -0.000000 -0.000000
								CHANNELS 3 Zrotation Yrotation Xrotation
								JOINT RightFingerBase
								{
									OFFSET 0.000000 0.000000 0.000000
									CHANNELS 3 Zrotation Yrotation Xrotation
									JOINT RightHandIndex1
									{
										OFFSET -0.622530 -0.000000 -0.000000
										CHANNELS 3 Zrotation Yrotation Xrotation
										End Site
										{
											OFFSET 0.000000 0.000000 0.000000
										}
									}
								}
								JOINT RThumb
								{
									OFFSET 0.000000 0.000000 0.000000
									CHANNELS 3 Zrotation Yrotation Xrotation
									End Site
									{
										OFFSET 0.000000 0.000000 0.000000
									}
								}
							}
						}
					}
				}
			}
		}
	}
}
MOTION
Frames: 12
Frame Time: 0.008333
7.042813 17.875404 -18.921594 8.220477 53.060927 14.926749 -1.211035 2.210485 3.847417 -10.184152 3.192359 -6.080355 -1.981208 3.325561 12.899005 2.299592 -4.756180 8.065850 1.267500 -7.136100 -20.119300 -0.954271 -0.534044 -0.790141 12.719534 9.811061 -29.835684 0.219466 -11.017138 27.950159 2.382911 -11.118754 -2.906480 -0.219800 -3.017900 8.328600 -3.707386 -4.601580 19.724264 -1.205828 -6.603828 11.957276 2.512814 -2.545834 -8.990886 1.241517 -0.727972 -10.186954 4.496343 -1.619921 -1.093864 -0.596400 -1.046800 0.753900 -0.851930 -5.367719 0.967895 -59.670936 4.985069 25.849131 71.169156 -56.170409 -47.296627 0.986367 -1.353938 4.383020 10.479215 4.626833 0.981800 -7.125000 0.000000 0.000000 -14.409800 35.680600 3.388400 1.566159 5.645602 2.092387 75.219860 -35.688268 38.489763 -32.679859 38.826105 -10.895773 0.809307 -0.516883 -3.818594 -5.349996 -17.465036 1.784400 7.125000 0.000000 0.000000 20.298400 -45.897200 -0.468800 
7.133486 17.873204 -18.804528 8.393059 53.008591 15.193452 -1.168907 2.237921 3.855551 -10.097852 3.221310 -5.916928 -1.956161 3.385924 13.122045 2.392543 -5.106079 8.487688 1.386900 -7.451200 -21.059300 -0.934031 -0.566785 -0.768604 12.980661 9.038500 -29.847484 0.154342 -11.065659 28.105872 2.782040 -12.544544 -3.147533 -0.222400 -3.035800 8.378300 -3.586503 -4.630541 19.551708 -0.834492 -6.627563 11.886129 2.628503 -2.557429 -8.936266 1.583076 -0.728725 -10.153162 3.487389 -1.601155 -1.249304 -0.856200 -1.040500 0.699800 -0.906745 -5.333371 0.954419 -60.006672 5.356213 26.135139 72.127070 -56.366144 -48.172112 0.994062 -1.361852 4.103721 10.617719 4.452091 0.969400 -7.125000 0.000000 0.000000 -14.267300 35.529400 3.407300 1.520145 5.659243 2.101724 75.193072 -35.921452 37.874010 -32.322861 38.520823 -10.686018 0.813780 -0.498493 -4.174209 -5.041110 -17.357959 1.685400 7.125000 0.000000 0.000000 20.535000 -45.773000 -0.409100 
7.222360 17.868306 -18.685664 8.475484 52.945315 15.379937 -1.124701 2.241242 3.837643 -9.946983 3.246945 -5.988808 -1.880904 3.619232 13.801447 2.518817 -5.544425 8.845159 1.500700 -7.737700 -21.920100 -0.913846 -0.594403 -0.740338 13.292611 8.327802 -29.844940 0.088256 -11.125360 28.325599 3.026154 -13.401057 -3.325926 -0.214300 -2.980200 8.223500 -3.441711 -4.631106 19.405020 -0.415070 -6.612591 11.805543 2.737252 -2.547345 -8.902810 1.936344 -0.739045 -10.108196 2.450309 -1.596877 -1.426373 -1.128400 -1.041100 0.638800 -0.961131 -5.296508 0.935711 -60.482930 5.775533 26.424619 72.807862 -56.514215 -48.782611 0.997625 -1.364749 3.789453 10.667850 4.334185 0.956500 -7.125000 0.000000 0.000000 -14.202900 35.424900 3.428400 1.466910 5.676131 2.110774 75.221042 -36.085558 37.180691 -31.907249 38.168166 -10.445418 0.817927 -0.484891 -4.381963 -4.771884 -17.261458 1.600000 7.125000 0.000000 0.000000 20.738000 -45.661200 -0.353700 
7.309334 17.861808 -18.565399 8.443477 52.869748 15.471108 -1.076123 2.220609 3.793169 -9.719883 3.258552 -6.293918 -1.750641 4.020741 14.930642 2.671249 -6.049091 9.162260 1.617100 -8.018200 -22.769400 -0.893551 -0.615422 -0.706249 13.659121 7.703512 -29.831688 0.029133 -11.187346 28.580889 3.114834 -13.703605 -3.469048 -0.199600 -2.877200 7.937000 -3.262515 -4.605130 19.285263 0.063557 -6.558735 11.719145 2.835369 -2.515582 -8.888607 2.273486 -0.759374 -10.055487 1.406322 -1.608047 -1.635351 -1.405100 -1.049100 0.569100 -1.014079 -5.258999 0.911844 -61.102417 6.235480 26.723559 73.186140 -56.613235 -49.102858 0.997833 -1.361634 3.461684 10.667949 4.303304 0.952600 -7.125000 0.000000 0.000000 -14.191500 35.397800 3.435100 1.406563 5.694679 2.118131 75.288702 -36.163541 36.415620 -31.428263 37.762422 -10.171961 0.821323 -0.476342 -4.425746 -4.545846 -17.166388 1.527900 7.125000 0.000000 0.000000 20.901100 -45.553600 -0.298800 
7.394809 17.854410 -18.444135 8.257727 52.779291 15.433471 -1.018836 2.181395 3.724818 -9.396190 3.245147 -6.802725 -1.562264 4.566256 16.455852 2.839155 -6.587365 9.497996 1.737800 -8.297100 -23.620200 -0.872090 -0.630324 -0.666518 14.096589 7.191614 -29.799387 -0.018723 -11.244944 28.848709 3.075380 -13.558048 -3.611070 -0.184700 -2.767800 7.633000 -3.012763 -4.553947 19.185253 0.592961 -6.457741 11.637242 2.894562 -2.460607 -8.887990 2.601472 -0.789224 -10.001957 0.375910 -1.635719 -1.864057 -1.683700 -1.064500 0.493900 -1.064035 -5.221950 0.884333 -61.829107 6.730107 27.056624 73.250719 -56.662493 -49.123907 0.995035 -1.352601 3.155361 10.625454 4.376780 0.961100 -7.125000 0.000000 0.000000 -14.231100 35.464900 3.421200 1.339377 5.715236 2.123663 75.418615 -36.144714 35.563991 -30.883832 37.300854 -9.865487 0.823678 -0.473702 -4.294996 -4.371029 -17.064117 1.470200 7.125000 0.000000 0.000000 21.014400 -45.442300 -0.240100 
7.479084 17.846512 -18.322471 7.904164 52.669105 15.258583 -0.947994 2.128725 3.634810 -8.971949 3.201775 -7.474594 -1.315133 5.222306 18.299356 3.012390 -7.134562 9.886159 1.867000 -8.583300 -24.500400 -0.849272 -0.640318 -0.621852 14.611028 6.804102 -29.744127 -0.054648 -11.295170 29.111983 2.948644 -13.112044 -3.787380 -0.174200 -2.688300 7.412100 -2.683838 -4.479601 19.104752 1.173564 -6.309392 11.561827 2.908400 -2.382795 -8.901068 2.898577 -0.824142 -9.957951 -0.608785 -1.673502 -2.098479 -1.954200 -1.083800 0.418200 -1.109483 -5.186314 0.853791 -62.648873 7.259416 27.434020 72.985187 -56.659328 -48.830805 0.990060 -1.337965 2.927436 10.583351 4.557445 0.986400 -7.125000 0.000000 0.000000 -14.289300 35.630700 3.376500 1.266503 5.736809 2.126620 75.595670 -36.016901 34.638719 -30.268192 36.776383 -9.524194 0.824804 -0.476739 -3.981019 -4.243828 -16.951320 1.425500 7.125000 0.000000 0.000000 21.080000 -45.323800 -0.176400 
7.562559 17.838015 -18.200607 7.384466 52.527819 14.947429 -0.860415 2.067458 3.525641 -8.454673 3.114256 -8.263373 -1.010460 5.956695 20.386844 3.176222 -7.651849 10.370231 1.996200 -8.858200 -25.352800 -0.824972 -0.647468 -0.571652 15.204384 6.535106 -29.657532 -0.079267 -11.334643 29.355214 2.775989 -12.511722 -4.006472 -0.166600 -2.629900 7.250100 -2.268039 -4.383117 19.030430 1.788248 -6.112498 11.505796 2.862787 -2.282979 -8.912526 3.163025 -0.864385 -9.929324 -1.521381 -1.723112 -2.336383 -2.209800 -1.108500 0.343700 -1.148202 -5.153994 0.821197 -63.532108 7.819396 27.858245 72.390089 -56.601517 -48.226363 0.983307 -1.318870 2.831891 10.562604 4.827255 1.027400 -7.125000 0.000000 0.000000 -14.347600 35.878500 3.301700 1.189220 5.758983 2.125848 75.820374 -35.761493 33.646330 -29.577405 36.183505 -9.147369 0.824169 -0.485523 -3.485104 -4.167117 -16.817227 1.393400 7.125000 0.000000 0.000000 21.092200 -45.188800 -0.103000 
7.645735 17.829217 -18.079043 6.715653 52.346153 14.517424 -0.755320 2.003904 3.402158 -7.859414 2.976655 -9.109454 -0.658674 6.724720 22.605444 3.314060 -8.091683 11.004548 2.108300 -9.088200 -26.071600 -0.796896 -0.654373 -0.514656 15.870735 6.365242 -29.520824 -0.086330 -11.349494 29.532499 2.587870 -11.861518 -4.251634 -0.162700 -2.598500 7.162700 -1.770321 -4.267557 18.957816 2.420848 -5.871806 11.467524 2.756567 -2.163824 -8.919350 3.399963 -0.906780 -9.911101 -2.358053 -1.780145 -2.570558 -2.449700 -1.136200 0.271700 -1.179697 -5.126115 0.787231 -64.449022 8.397322 28.341287 71.426180 -56.477093 -47.276218 0.974664 -1.296270 2.915689 10.576473 5.158440 1.081300 -7.125000 0.000000 0.000000 -14.391000 36.182000 3.202400 1.108794 5.782086 2.121329 76.075829 -35.376382 32.614031 -28.817222 35.524049 -8.740958 0.822599 -0.499562 -2.812902 -4.137132 -16.683709 1.374600 7.125000 0.000000 0.000000 21.061900 -45.056800 -0.031000 
7.729010 17.820020 -17.958179 5.935725 52.112512 13.994257 -0.632751 1.937298 3.261991 -7.215180 2.769753 -9.996160 -0.253388 7.528127 24.966723 3.418316 -8.435890 11.747490 2.182400 -9.236100 -26.536600 -0.768233 -0.661869 -0.451145 16.599783 6.258087 -29.342889 -0.085730 -11.349115 29.668817 2.416944 -11.275154 -4.492363 -0.159800 -2.575700 7.099700 -1.208130 -4.134144 18.899304 3.051533 -5.593565 11.441695 2.596500 -2.027564 -8.929868 3.621412 -0.947616 -9.916482 -3.120509 -1.837906 -2.776423 -2.675400 -1.163600 0.209800 -1.203790 -5.100026 0.752373 -65.385833 9.012241 28.876220 70.128551 -56.286921 -46.017080 0.964096 -1.271556 3.196510 10.619544 5.518058 1.142500 -7.125000 0.000000 0.000000 -14.417800 36.509900 3.089700 1.026872 5.806772 2.113758 76.341821 -34.864726 31.567611 -27.989228 34.796198 -8.308090 0.819839 -0.518075 -1.965847 -4.145096 -16.550047 1.366500 7.125000 0.000000 0.000000 20.997500 -44.927500 0.039400 
7.812685 17.818720 -17.836515 5.101507 51.811817 13.419593 -0.497522 1.870854 3.108546 -6.564058 2.496199 -10.880258 0.199327 8.344041 27.411586 3.478320 -8.653078 12.577101 2.209100 -9.288800 -26.702900 -0.737190 -0.673350 -0.377062 17.366850 6.175125 -29.095555 -0.074192 -11.324511 29.744419 2.259156 -10.736082 -4.756942 -0.154600 -2.533800 6.983400 -0.606276 -3.982748 18.853077 3.650866 -5.282661 11.431086 2.386780 -1.876414 -8.937696 3.829473 -0.985336 -9.922012 -3.800361 -1.895405 -2.970349 -2.883800 -1.190800 0.151300 -1.219513 -5.077801 0.716581 -66.333441 9.657878 29.440505 68.494531 -56.020423 -44.451750 0.951391 -1.245758 3.688744 10.687248 5.865777 1.204300 -7.125000 0.000000 0.000000 -14.423400 36.822800 2.977400 0.945322 5.832285 2.102475 76.609534 -34.225866 30.522448 -27.104539 34.005995 -7.857162 0.816219 -0.539743 -0.946542 -4.169335 -16.425286 1.363700 7.125000 0.000000 0.000000 20.921200 -44.807400 0.104100 
7.896260 17.808024 -17.718250 4.248495 51.449458 12.822531 -0.352502 1.802054 2.941955 -5.920951 2.148180 -11.760799 0.700880 9.167608 29.934037 3.500032 -8.767802 13.472011 2.174200 -9.220000 -26.485800 -0.710171 -0.684994 -0.298471 18.149929 6.099184 -28.827745 -0.057149 -11.287750 29.787577 2.095588 -10.173322 -5.032495 -0.145500 -2.457800 6.772700 0.013789 -3.816296 18.835640 4.211932 -4.947755 11.421879 2.144920 -1.713957 -8.956649 4.051290 -1.020337 -9.928244 -4.432350 -1.951605 -3.141116 -3.086500 -1.217000 0.098300 -1.229428 -5.056961 0.680193 -67.276100 10.331936 30.041953 66.550983 -55.670520 -42.610037 0.936358 -1.218959 4.333574 10.761736 6.197673 1.264600 -7.125000 0.000000 0.000000 -14.420500 37.117700 2.869700 0.864422 5.859892 2.088927 76.861424 -33.474887 29.491385 -26.177296 33.163345 -7.397594 0.811571 -0.563559 0.244286 -4.196201 -16.311145 1.362700 7.125000 0.000000 0.000000 20.846000 -44.698000 0.162700 
7.980036 17.798326 -17.601285 3.442929 51.017653 12.246504 -0.206511 1.732055 2.766503 -5.333360 1.736161 -12.609475 1.245921 9.985221 32.499104 3.485039 -8.790251 14.370514 2.065200 -9.000700 -25.797400 -0.684479 -0.699012 -0.213221 18.908079 6.009058 -28.516144 -0.032586 -11.233243 29.784960 1.913331 -9.532309 -5.284554 -0.136400 -2.380000 6.557200 0.613230 -3.632157 18.855720 4.713768 -4.593281 11.414988 1.886844 -1.541639 -8.990109 4.283450 -1.051787 -9.930088 -5.010602 -2.004596 -3.284027 -3.280600 -1.241400 0.051300 -1.233465 -5.037249 0.643031 -68.215702 11.025603 30.659520 64.325884 -55.227843 -40.525598 0.918689 -1.191359 5.078129 10.821385 6.504337 1.319000 -7.125000 0.000000 0.000000 -14.423500 37.384600 2.773300 0.785996 5.889325 2.073476 77.086922 -32.621758 28.488420 -25.225253 32.282557 -6.940024 0.805868 -0.588452 1.598798 -4.211740 -16.210580 1.360200 7.125000 0.000000 0.000000 20.785600 -44.601300 0.214100 
